<?xml version="1.0" encoding="utf-8"?>
<svg xmlns="http://www.w3.org/2000/svg" viewBox="-200 -600 3234 1549">
  <path d="M -221.72 -613.14 C 845.445 -613.14 1912.66 -613.14 3012.22 -613.14 C 3012.22 -101.98 3012.22 409.191 3012.22 935.851 C 1945.01 935.851 877.785 935.851 -221.72 935.851 C -221.72 424.681 -221.72 -86.489 -221.72 -613.14 Z" fill="#FEFEFE"/>
  <path d="M -221.72 -613.14 C 157.375 -613.14 536.565 -613.14 927.225 -613.14 C 927.225 -612.49 927.225 -611.83 927.225 -611.14 C 926.565 -611.14 925.905 -611.14 925.225 -611.14 C 925.125 -610.6 925.025 -610.02 924.925 -609.46 C 924.005 -604.5 922.825 -599.71 921.365 -594.88 C 918.975 -586.58 917.305 -578.2 915.725 -569.72 C 915.505 -568.51 915.505 -568.51 915.275 -567.3 C 912.475 -552.4 910.415 -537.5 908.645 -522.45 C 908.245 -519.34 907.775 -516.25 907.275 -513.14 C 905.765 -503.56 904.805 -493.92 903.785 -484.27 C 903.625 -482.75 903.625 -482.75 903.455 -481.19 C 901.725 -464.87 900.275 -448.54 899.125 -432.15 C 899.045 -431 899.045 -431 898.955 -429.82 C 898.815 -427.77 898.675 -425.71 898.535 -423.67 C 898.225 -420.14 898.225 -420.14 897.735 -417.31 C 897.035 -412.94 896.805 -408.57 896.545 -404.17 C 896.455 -402.71 896.455 -402.71 896.355 -401.24 C 896.235 -399.17 896.105 -397.11 895.985 -395.05 C 895.655 -389.67 895.325 -384.3 894.985 -378.92 C 894.915 -377.87 894.855 -376.82 894.785 -375.75 C 894.325 -368.51 893.785 -361.31 893.165 -354.08 C 891.035 -328.9 890.065 -303.63 889.565 -278.38 C 889.425 -271.4 889.255 -264.44 888.895 -257.48 C 888.015 -240.29 887.725 -223.1 887.345 -205.91 C 887.245 -201.22 887.135 -196.53 887.025 -191.84 C 886.755 -179.94 886.495 -168.04 886.225 -156.15 C 885.935 -143.29 885.645 -130.44 885.355 -117.6 C 885.245 -112.95 885.145 -108.3 885.045 -103.66 C 884.925 -98.466 884.815 -93.277 884.695 -88.087 C 884.675 -87.274 884.655 -86.462 884.635 -85.625 C 884.395 -75.565 884.055 -65.52 883.545 -55.47 C 883.075 -45.962 883.095 -36.459 883.135 -26.942 C 883.135 -24.972 883.145 -23.002 883.145 -21.032 C 883.185 -3.808 883.365 13.415 883.565 30.639 C 884.195 85.626 884.435 140.615 884.675 195.605 C 884.735 208.277 884.795 220.948 884.855 233.62 C 884.855 234.755 884.865 235.891 884.865 237.061 C 885.185 307.676 885.185 307.676 885.585 378.291 C 885.595 379.749 885.595 381.207 885.605 382.665 C 885.615 383.376 885.615 384.088 885.625 384.821 C 885.655 389.66 885.675 394.5 885.705 399.339 C 885.945 447.167 887.685 494.8 891.545 542.476 C 892.115 549.807 892.475 557.128 892.725 564.476 C 893.115 575.507 893.925 586.46 894.915 597.451 C 895.435 603.197 895.925 608.944 896.415 614.692 C 896.605 616.872 896.785 619.053 896.975 621.233 C 897.745 630.094 898.485 638.956 899.205 647.82 C 901.645 677.856 901.645 677.856 904.865 707.818 C 905.395 712.239 905.895 716.663 906.395 721.086 C 907.645 732.011 908.935 742.931 910.225 753.851 C 910.825 753.871 911.425 753.892 912.035 753.913 C 914.225 754.851 914.225 754.851 915.845 757.495 C 917.895 762.926 918.335 768.751 918.985 774.479 C 919.315 777.289 919.655 780.096 920.005 782.903 C 920.175 784.304 920.345 785.705 920.515 787.106 C 921.135 792.246 921.865 797.361 922.665 802.476 C 922.905 804.077 923.145 805.679 923.375 807.281 C 923.825 810.279 924.295 813.271 924.795 816.262 C 930.125 848.577 931.025 881.177 932.225 913.851 C 932.555 913.851 932.885 913.851 933.225 913.851 C 933.255 917.33 933.275 920.809 933.285 924.288 C 933.295 925.282 933.305 926.275 933.315 927.298 C 933.315 928.242 933.315 929.187 933.325 930.159 C 933.335 931.471 933.335 931.471 933.335 932.81 C 933.225 934.851 933.225 934.851 932.225 935.851 C 929.705 935.95 927.215 935.983 924.705 935.975 C 923.895 935.976 923.095 935.978 922.265 935.979 C 919.535 935.982 916.805 935.978 914.085 935.974 C 912.105 935.975 910.145 935.976 908.165 935.977 C 902.705 935.981 897.245 935.977 891.775 935.973 C 885.865 935.97 879.955 935.972 874.045 935.974 C 863.655 935.976 853.275 935.974 842.885 935.97 C 831.615 935.966 820.345 935.963 809.075 935.964 C 808.355 935.964 807.635 935.964 806.895 935.964 C 803.245 935.964 799.595 935.964 795.945 935.965 C 769.725 935.966 743.515 935.962 717.295 935.956 C 681.845 935.948 646.395 935.946 610.945 935.945 C 525.685 935.94 440.425 935.926 355.165 935.913 C 69.575 935.882 69.575 935.882 -221.72 935.851 C -221.72 424.681 -221.72 -86.489 -221.72 -613.14 Z" fill="#FEFEFE"/>
  <path d="M -218.72 207.851 C 18.575 207.851 18.575 207.851 41.075 212.726 C 42.875 213.091 42.875 213.091 44.775 213.464 C 74.875 219.716 106.175 235.767 123.575 261.995 C 134.575 280.687 139.575 298.416 139.475 320.226 C 139.475 321.533 139.475 322.84 139.475 324.187 C 139.475 336.169 138.475 347.591 134.275 358.851 C 133.975 359.529 133.775 360.207 133.575 360.906 C 130.075 372.787 123.875 383.176 116.275 392.851 C 115.275 394.106 115.275 394.106 114.275 395.386 C 106.975 404.115 95.975 411.877 85.275 415.851 C 86.175 416.324 87.175 416.797 88.175 417.284 C 103.275 424.627 116.875 432.464 129.275 443.851 C 130.075 444.664 130.975 445.478 131.975 446.316 C 138.475 452.521 143.375 459.306 148.275 466.851 C 148.675 467.465 149.075 468.08 149.475 468.713 C 152.675 473.557 154.875 478.42 156.875 483.851 C 157.175 484.587 157.375 485.323 157.675 486.081 C 162.475 498.995 163.675 512.021 163.575 525.67 C 163.575 527.982 163.575 530.293 163.575 532.605 C 163.475 566.515 151.375 596.805 127.375 621.038 C 95.675 652.406 48.875 666.117 4.975 665.971 C 3.575 665.972 3.575 665.972 2.075 665.974 C -1.125 665.975 -4.325 665.97 -7.525 665.964 C -9.825 665.964 -12.225 665.964 -14.525 665.965 C -20.825 665.965 -27.025 665.959 -33.325 665.952 C -39.225 665.946 -45.025 665.946 -50.925 665.945 C -68.125 665.94 -85.325 665.926 -102.42 665.913 C -140.82 665.893 -179.22 665.872 -218.72 665.851 C -218.72 514.711 -218.72 363.571 -218.72 207.851 Z" style="fill: rgb(255, 0, 0);"/>
  <path d="M 1842.22 96.851 C 1843.54 97.115 1844.85 97.388 1846.16 97.663 C 1846.89 97.814 1847.62 97.965 1848.38 98.12 C 1850.81 98.745 1853.1 99.491 1855.47 100.32 C 1860.05 101.868 1864.58 102.812 1869.35 103.538 C 1870.17 103.664 1871 103.79 1871.85 103.92 C 1888.47 106.295 1904.18 104.642 1919.95 98.972 C 1922.72 98.023 1925.34 97.336 1928.22 96.851 C 1933.38 115.291 1936.28 132.617 1936.3 151.773 C 1936.34 176.184 1936.77 199.068 1943.15 222.726 C 1944.4 227.437 1945.47 232.186 1946.55 236.941 C 1947.34 240.39 1948.12 243.84 1948.91 247.288 C 1949.1 248.101 1949.28 248.914 1949.48 249.751 C 1950.01 252.077 1950.56 254.4 1951.11 256.722 C 1951.34 257.734 1951.34 257.734 1951.58 258.766 C 1952.48 262.5 1953.65 265.802 1955.27 269.288 C 1957.77 275.515 1957.78 281.314 1957.73 287.956 C 1957.73 289.245 1957.74 290.534 1957.74 291.862 C 1957.76 295.416 1957.75 298.968 1957.73 302.522 C 1957.72 306.364 1957.73 310.206 1957.74 314.048 C 1957.76 321.566 1957.75 329.083 1957.73 336.601 C 1957.72 345.367 1957.72 354.133 1957.72 362.898 C 1957.73 378.547 1957.72 394.197 1957.69 409.846 C 1957.67 425.009 1957.66 440.171 1957.67 455.334 C 1957.68 471.865 1957.68 488.395 1957.67 504.926 C 1957.67 506.691 1957.67 508.457 1957.67 510.222 C 1957.66 511.091 1957.66 511.96 1957.66 512.854 C 1957.66 518.954 1957.66 525.054 1957.66 531.154 C 1957.67 538.599 1957.66 546.043 1957.64 553.487 C 1957.63 557.28 1957.63 561.073 1957.64 564.866 C 1957.64 568.99 1957.63 573.114 1957.61 577.238 C 1957.62 579.011 1957.62 579.011 1957.63 580.82 C 1957.55 591.331 1956.52 602.456 1950.72 611.476 C 1950.14 612.417 1949.55 613.358 1948.94 614.327 C 1947.22 616.851 1947.22 616.851 1945.44 618.874 C 1943.99 620.812 1943.99 620.812 1944.35 623.296 C 1945.32 626.113 1946.68 628.222 1948.29 630.726 C 1951.56 637.023 1951.86 642.815 1951.91 649.851 C 1951.93 650.867 1951.95 651.882 1951.97 652.929 C 1951.86 660.144 1951.86 660.144 1948.93 663.413 C 1948.04 663.888 1947.15 664.362 1946.22 664.851 C 1945.61 665.205 1944.99 665.559 1944.36 665.924 C 1941.88 667.001 1940.11 667.105 1937.41 667.112 C 1936.45 667.119 1935.48 667.126 1934.48 667.133 C 1932.9 667.129 1932.9 667.129 1931.29 667.126 C 1930.18 667.131 1929.07 667.136 1927.92 667.141 C 1924.23 667.155 1920.54 667.154 1916.85 667.152 C 1914.29 667.156 1911.73 667.16 1909.17 667.165 C 1903.8 667.172 1898.43 667.172 1893.07 667.167 C 1886.86 667.161 1880.66 667.173 1874.46 667.194 C 1868.49 667.214 1862.52 667.217 1856.55 667.213 C 1854.01 667.214 1851.47 667.219 1848.93 667.229 C 1845.38 667.242 1841.83 667.235 1838.29 667.223 C 1837.23 667.231 1836.18 667.238 1835.1 667.246 C 1826.07 667.181 1826.07 667.181 1822.22 663.851 C 1819.59 658.675 1819.89 653.095 1819.91 647.413 C 1819.9 646.498 1819.88 645.582 1819.86 644.638 C 1819.86 637.585 1820.83 632.708 1825.47 627.163 C 1827.48 625.034 1827.48 625.034 1827.1 622.601 C 1826.35 620.663 1826.35 620.663 1824.22 619.851 C 1823.75 620.468 1823.28 621.086 1822.79 621.722 C 1800.13 650.745 1766.66 667.242 1730.54 672.374 C 1726.26 672.9 1722.04 673.012 1717.74 673.019 C 1716.95 673.022 1716.17 673.026 1715.36 673.029 C 1713.71 673.034 1712.07 673.036 1710.42 673.036 C 1707.93 673.038 1705.44 673.057 1702.95 673.075 C 1694.49 673.106 1686.49 672.87 1678.22 670.851 C 1677.03 670.577 1677.03 670.577 1675.8 670.298 C 1636.6 661.084 1606.43 637.089 1585.04 603.413 C 1555.17 553.57 1548.46 491.894 1561.93 435.581 C 1568.63 409.982 1579.89 386.617 1596.22 365.851 C 1596.89 364.998 1596.89 364.998 1597.58 364.128 C 1610.53 347.805 1626.45 334.109 1645.22 324.851 C 1646.17 324.373 1647.12 323.894 1648.09 323.402 C 1667.35 314.054 1687.29 310.247 1708.6 310.476 C 1709.36 310.48 1710.12 310.484 1710.9 310.488 C 1746.63 310.707 1778.11 322.461 1805.35 345.796 C 1807.6 348.258 1808.79 350.861 1810.22 353.851 C 1810.22 352.448 1810.22 352.448 1810.22 351.018 C 1810.19 342.12 1810.2 333.223 1810.25 324.326 C 1810.28 319.753 1810.29 315.182 1810.27 310.609 C 1810.14 273.996 1810.14 273.996 1817.36 258.883 C 1818.94 255.179 1819.78 251.298 1820.67 247.378 C 1820.85 246.587 1821.03 245.796 1821.21 244.981 C 1821.75 242.586 1822.27 240.187 1822.79 237.788 C 1823.32 235.419 1823.85 233.05 1824.38 230.682 C 1824.74 229.047 1825.1 227.411 1825.45 225.774 C 1826.46 221.115 1827.57 216.507 1828.81 211.904 C 1833.34 194.738 1834.04 178.481 1833.91 160.788 C 1833.84 141.293 1833.93 123.032 1839.91 104.288 C 1840.14 103.554 1840.36 102.82 1840.59 102.064 C 1841.13 100.323 1841.68 98.587 1842.22 96.851 Z" style="fill: rgb(255, 0, 0);"/>
  <path d="M 2959.22 328.851 C 2960.57 329.704 2960.57 329.704 2961.95 330.574 C 2975.93 340.061 2986.09 352.191 2994.22 366.851 C 2994.78 367.822 2995.34 368.792 2995.93 369.792 C 3010.32 396.366 3012.55 426.703 3012.45 456.283 C 3012.45 458.581 3012.45 460.879 3012.45 463.178 C 3012.45 469.36 3012.45 475.543 3012.43 481.725 C 3012.41 488.208 3012.41 494.69 3012.41 501.172 C 3012.41 512.034 3012.39 522.895 3012.38 533.757 C 3012.36 544.935 3012.34 556.113 3012.34 567.291 C 3012.34 567.99 3012.34 568.688 3012.34 569.407 C 3012.32 575.483 3012.32 581.559 3012.32 587.634 C 3012.3 613.706 3012.26 639.779 3012.22 665.851 C 2971.97 665.851 2931.7 665.851 2890.22 665.851 C 2890.18 650.374 2890.13 634.898 2890.07 618.952 C 2890.05 609.154 2890.01 599.356 2889.97 589.558 C 2889.91 574.002 2889.84 558.446 2889.8 542.89 C 2889.76 531.561 2889.74 520.232 2889.68 508.903 C 2889.66 502.905 2889.64 496.908 2889.63 490.911 C 2889.61 485.262 2889.59 479.613 2889.55 473.965 C 2889.55 471.895 2889.55 469.826 2889.55 467.756 C 2889.53 464.922 2889.53 462.088 2889.51 459.254 C 2889.51 458.037 2889.51 458.037 2889.51 456.795 C 2889.43 448.07 2887.88 440.291 2883.86 432.538 C 2883.26 431.387 2882.68 430.236 2882.07 429.05 C 2879.2 424.071 2876.47 420.635 2871.47 417.726 C 2870.68 417.249 2869.88 416.772 2869.05 416.281 C 2861.34 412.379 2855.26 411.296 2846.66 411.351 C 2845.61 411.357 2844.55 411.364 2843.45 411.37 C 2829.99 411.682 2818.91 415.083 2809.22 424.851 C 2800.64 434.133 2796.09 445.072 2796.07 457.57 C 2796.07 458.904 2796.07 458.904 2796.05 460.266 C 2796.03 463.252 2796.03 466.238 2796.01 469.225 C 2796.01 471.363 2795.99 473.502 2795.99 475.64 C 2795.97 481.452 2795.95 487.264 2795.93 493.075 C 2795.91 499.146 2795.88 505.218 2795.84 511.289 C 2795.8 522.788 2795.76 534.288 2795.7 545.787 C 2795.64 561.324 2795.59 576.862 2795.51 592.399 C 2795.41 616.883 2795.32 641.367 2795.22 665.851 C 2754.97 665.851 2714.7 665.851 2673.22 665.851 C 2673.2 650.432 2673.18 635.014 2673.14 619.128 C 2673.13 609.353 2673.09 599.577 2673.07 589.802 C 2673.01 574.291 2672.97 558.779 2672.95 543.268 C 2672.95 531.969 2672.91 520.671 2672.88 509.373 C 2672.84 503.395 2672.84 497.417 2672.84 491.439 C 2672.84 485.803 2672.82 480.167 2672.78 474.53 C 2672.78 472.471 2672.78 470.411 2672.78 468.352 C 2672.82 452.249 2672.05 436.825 2661.22 423.851 C 2651.03 413.709 2639.07 411.51 2625.26 411.466 C 2612.66 411.647 2602.49 414.992 2593.22 423.851 C 2592.28 424.744 2592.28 424.744 2591.34 425.656 C 2581.64 435.817 2577.91 448.287 2577.95 462.019 C 2577.95 462.897 2577.93 463.774 2577.93 464.679 C 2577.91 467.594 2577.91 470.51 2577.91 473.425 C 2577.89 475.525 2577.89 477.625 2577.88 479.725 C 2577.84 485.408 2577.84 491.091 2577.82 496.774 C 2577.8 502.72 2577.78 508.666 2577.76 514.612 C 2577.7 525.863 2577.66 537.114 2577.64 548.366 C 2577.59 563.575 2577.53 578.784 2577.47 593.994 C 2577.38 617.946 2577.3 641.898 2577.22 665.851 C 2537.3 665.851 2497.36 665.851 2456.22 665.851 C 2456.22 551.011 2456.22 436.171 2456.22 317.851 C 2493.84 317.851 2531.47 317.851 2570.22 317.851 C 2571.22 328.741 2572.2 339.631 2573.22 350.851 C 2578.18 345.901 2578.18 345.901 2583.22 340.851 C 2596.78 329.228 2611.78 321.108 2628.72 315.601 C 2629.84 315.231 2629.84 315.231 2630.99 314.854 C 2642.86 311.156 2654.74 310.501 2667.09 310.535 C 2669.45 310.538 2671.84 310.515 2674.22 310.49 C 2687.74 310.433 2701.24 311.771 2713.97 316.601 C 2714.68 316.857 2715.36 317.113 2716.09 317.377 C 2734.88 324.52 2750.05 336.931 2761.78 353.163 C 2762.41 354.025 2762.41 354.025 2763.05 354.904 C 2765.51 358.418 2767.07 361.73 2768.22 365.851 C 2771.45 362.728 2774.45 359.475 2777.41 356.101 C 2798.74 332.388 2826.47 318.831 2857.32 312.258 C 2858.97 311.905 2860.61 311.534 2862.26 311.159 C 2893.22 304.926 2932.68 311.775 2959.22 328.851 Z" style="fill: rgb(255, 0, 0);"/>
  <path d="M 779.225 -611.14 C 784.965 -602.53 786.475 -590.51 788.665 -580.52 C 788.815 -579.86 788.955 -579.17 789.115 -578.49 C 792.345 -563.71 794.485 -548.79 796.455 -533.8 C 796.955 -530.02 797.535 -526.27 798.205 -522.52 C 799.825 -513.04 800.705 -503.45 801.725 -493.89 C 801.835 -492.88 801.945 -491.85 802.065 -490.79 C 803.385 -478.55 804.685 -466.31 805.595 -454.01 C 805.935 -449.38 806.375 -444.79 806.895 -440.17 C 808.475 -425.99 809.325 -411.75 810.225 -397.52 C 810.475 -393.63 810.725 -389.74 810.975 -385.83 C 811.135 -383.44 811.285 -381.05 811.445 -378.64 C 811.875 -371.9 812.385 -365.18 812.935 -358.44 C 814.045 -344.83 814.985 -331.24 815.715 -317.6 C 815.785 -316.43 815.845 -315.25 815.905 -314.05 C 817.815 -277.95 818.405 -241.81 819.165 -205.69 C 819.495 -190.18 819.835 -174.68 820.175 -159.18 C 820.295 -153.78 820.415 -148.38 820.525 -142.97 C 821.025 -119.28 821.025 -119.28 822.005 -95.608 C 822.345 -89.119 822.515 -82.623 822.665 -76.128 C 822.745 -72.857 822.825 -69.586 822.915 -66.315 C 823.245 -53.365 823.255 -40.418 823.245 -27.465 C 823.245 -25.992 823.245 -25.992 823.245 -24.489 C 823.235 -4.29 823.175 15.908 823.085 36.107 C 823.075 39.016 823.065 41.925 823.055 44.834 C 822.675 134.427 822.195 224.019 821.525 313.61 C 821.505 316.276 821.485 318.941 821.465 321.607 C 821.455 322.919 821.445 324.232 821.435 325.584 C 821.365 334.691 821.305 343.798 821.245 352.906 C 820.905 406.944 820.515 460.898 817.225 514.851 C 817.125 516.547 817.125 516.547 817.015 518.278 C 816.355 529.179 815.665 540.078 814.905 550.972 C 814.475 557.067 814.075 563.161 813.735 569.261 C 812.815 585.308 811.495 601.276 809.955 617.273 C 808.855 628.751 807.865 640.215 807.165 651.726 C 806.045 670.01 804.135 688.209 801.755 706.37 C 800.795 714.15 800.105 721.965 799.365 729.769 C 798.555 738.174 797.485 746.502 796.225 754.851 C 794.575 755.181 792.925 755.511 791.225 755.851 C 788.985 764.639 787.495 773.354 786.465 782.362 C 786.055 785.899 785.625 789.433 785.195 792.968 C 785.105 793.661 785.025 794.353 784.945 795.066 C 784.295 800.406 783.545 805.723 782.725 811.038 C 782.615 811.754 782.505 812.47 782.395 813.207 C 781.865 816.693 781.335 820.177 780.755 823.655 C 777.045 845.976 776.205 868.198 775.565 890.781 C 775.415 895.657 775.255 900.532 775.095 905.408 C 774.785 914.888 774.505 924.369 774.225 933.851 C 773.895 933.851 773.565 933.851 773.225 933.851 C 772.305 929.066 771.995 924.356 771.855 919.497 C 771.815 918.272 771.815 918.272 771.765 917.021 C 771.675 914.329 771.595 911.637 771.505 908.945 C 771.445 907.059 771.385 905.173 771.315 903.287 C 771.145 898.321 770.985 893.355 770.825 888.389 C 770.565 880.47 770.305 872.551 770.035 864.633 C 769.945 861.887 769.855 859.141 769.775 856.395 C 769.485 847.873 769.125 839.382 768.445 830.881 C 768.035 825.295 767.855 819.699 767.665 814.101 C 767.625 812.895 767.575 811.69 767.535 810.448 C 767.215 800.912 767.115 791.391 767.225 781.851 C 766.075 781.445 766.075 781.445 764.905 781.031 C 762.315 779.891 761.175 779.056 759.345 776.976 C 756.825 774.301 754.255 772.632 750.985 770.89 C 748.515 769.432 746.505 767.589 744.375 765.687 C 739.505 761.522 734.325 757.725 729.225 753.851 C 728.525 753.315 727.825 752.778 727.095 752.226 C 723.985 749.863 720.835 747.571 717.625 745.335 C 716.985 744.885 716.345 744.435 715.685 743.972 C 714.395 743.068 713.095 742.169 711.795 741.277 C 710.235 740.184 708.725 739.023 707.225 737.851 C 707.225 737.191 707.225 736.531 707.225 735.851 C 706.655 735.757 706.085 735.663 705.505 735.566 C 702.675 734.678 701.055 733.317 698.785 731.413 C 694.855 728.181 690.885 725.01 686.855 721.913 C 686.305 721.493 685.755 721.074 685.195 720.641 C 680.485 717.037 675.745 713.487 670.995 709.937 C 666.255 706.366 661.545 702.741 656.935 698.991 C 650.415 693.688 643.645 688.817 636.785 683.961 C 634.195 682.116 631.615 680.25 629.115 678.288 C 627.265 676.843 627.265 676.843 625.375 675.652 C 622.495 673.603 620.545 672.015 619.575 668.533 C 619.325 665.657 619.305 662.855 619.355 659.968 C 619.335 658.34 619.335 658.34 619.325 656.679 C 619.305 653.099 619.335 649.521 619.365 645.941 C 619.365 643.45 619.365 640.96 619.365 638.469 C 619.355 632.585 619.395 626.702 619.435 620.819 C 619.485 614.799 619.465 608.78 619.455 602.76 C 619.445 597.618 619.455 592.477 619.475 587.336 C 619.485 584.87 619.485 582.404 619.485 579.938 C 619.475 576.493 619.505 573.049 619.545 569.605 C 619.535 568.585 619.535 567.565 619.525 566.514 C 619.615 561.791 619.655 559.586 622.625 555.765 C 625.095 553.946 627.585 552.41 630.225 550.851 C 634.295 547.815 638.255 544.654 642.165 541.413 C 644.225 539.851 644.225 539.851 646.225 539.851 C 646.225 539.191 646.225 538.531 646.225 537.851 C 648.315 536.228 650.415 534.717 652.605 533.226 C 658.675 528.989 664.495 524.541 670.225 519.851 C 678.445 513.24 686.705 506.719 695.165 500.413 C 698.905 497.619 702.595 494.784 706.225 491.851 C 710.845 488.121 715.575 484.562 720.335 481.015 C 722.905 479.09 725.445 477.139 727.975 475.163 C 729.395 474.059 730.805 472.955 732.225 471.851 C 732.975 471.268 733.715 470.686 734.485 470.085 C 735.205 469.534 735.925 468.982 736.665 468.413 C 737.305 467.92 737.935 467.426 738.595 466.917 C 740.225 465.851 740.225 465.851 742.225 465.851 C 742.155 464.769 742.085 463.687 742.015 462.572 C 741.335 451.419 741.035 440.3 740.945 429.128 C 740.925 427.331 740.905 425.534 740.885 423.738 C 740.845 419.901 740.815 416.064 740.775 412.228 C 740.725 406.105 740.665 399.983 740.605 393.861 C 740.485 381.916 740.365 369.971 740.255 358.027 C 740.115 342.935 739.965 327.843 739.815 312.751 C 739.765 307.689 739.715 302.626 739.675 297.563 C 739.455 273.822 739.095 250.089 738.575 226.353 C 738.295 213.652 738.075 200.954 737.995 188.25 C 737.975 185.383 737.955 182.516 737.925 179.648 C 737.865 171.54 737.795 163.431 737.745 155.323 C 737.515 119.644 736.385 84.103 733.415 48.538 C 733.235 46.414 733.065 44.29 732.895 42.166 C 732.535 37.694 732.165 33.223 731.795 28.752 C 731.315 22.895 730.835 17.037 730.355 11.18 C 726.395 -37.705 721.995 -86.549 716.975 -135.34 C 716.855 -136.56 716.725 -137.78 716.595 -139.03 C 714.935 -155.21 714.935 -155.21 712.765 -171.32 C 711.375 -181.19 710.355 -191.12 709.225 -201.03 C 708.835 -204.47 708.435 -207.91 708.045 -211.34 C 707.795 -213.57 707.535 -215.81 707.285 -218.03 C 706.765 -222.6 706.235 -227.18 705.605 -231.75 C 704.275 -241.31 703.865 -250.69 703.915 -260.33 C 703.915 -261.1 703.915 -261.86 703.915 -262.64 C 703.955 -275 704.655 -287.01 707.225 -299.14 C 707.375 -299.87 707.525 -300.56 707.675 -301.31 C 711.565 -319.07 717.915 -336.13 724.225 -353.14 C 725.065 -355.44 725.905 -357.71 726.755 -360 C 737.015 -387.77 737.015 -387.77 742.265 -401.46 C 742.615 -402.39 742.975 -403.32 743.335 -404.29 C 744.035 -406.1 744.725 -407.9 745.425 -409.7 C 751.395 -425.29 753.715 -439.85 755.225 -456.39 C 756.185 -466.88 757.165 -477.33 758.735 -487.75 C 759.275 -491.5 759.725 -495.26 760.155 -499.05 C 760.265 -500.06 760.265 -500.06 760.385 -501.08 C 760.545 -502.48 760.705 -503.87 760.855 -505.25 C 762.595 -520.62 764.725 -535.88 767.225 -551.14 C 767.555 -553.23 767.895 -555.3 768.225 -557.38 C 774.765 -597.75 774.765 -597.75 779.225 -611.14 Z" style="fill: rgb(0, 0, 255);"/>
  <path d="M 925.225 -611.14 C 925.885 -611.14 926.545 -611.14 927.225 -611.14 C 927.415 -610.09 927.615 -609.02 927.815 -607.92 C 928.075 -606.5 928.335 -605.08 928.595 -603.64 C 928.725 -602.96 928.855 -602.25 928.985 -601.53 C 929.115 -600.85 929.245 -600.14 929.375 -599.42 C 929.545 -598.49 929.545 -598.49 929.725 -597.52 C 930.155 -595.47 930.665 -593.41 931.195 -591.37 C 932.195 -587.4 932.925 -583.43 933.595 -579.4 C 933.775 -578.34 933.775 -578.34 933.955 -577.24 C 934.335 -574.91 934.715 -572.6 935.095 -570.27 C 935.365 -568.64 935.635 -567.01 935.905 -565.38 C 936.565 -561.37 937.215 -557.35 937.875 -553.32 C 938.185 -551.38 938.505 -549.42 938.825 -547.48 C 941.245 -532.75 943.155 -517.98 944.835 -503.14 C 945.565 -496.68 946.335 -490.23 947.275 -483.79 C 948.115 -478.11 948.735 -472.44 949.225 -466.71 C 950.005 -458.14 950.985 -449.65 952.225 -441.14 C 952.325 -440.38 952.435 -439.63 952.545 -438.85 C 953.865 -429.19 955.315 -420.15 959.225 -411.14 C 959.605 -410.23 959.985 -409.31 960.385 -408.35 C 961.205 -406.35 962.045 -404.35 962.885 -402.36 C 967.065 -392.38 970.895 -382.38 974.415 -372.18 C 976.345 -366.6 978.365 -361.07 980.465 -355.56 C 992.305 -324.48 1001.46 -294.81 1001.41 -261.33 C 1001.41 -260.56 1001.41 -259.79 1001.41 -258.99 C 1001.39 -246.59 1000.85 -234.44 999.225 -222.15 C 999.125 -221.35 999.025 -220.56 998.915 -219.75 C 998.465 -216.25 998.015 -212.75 997.545 -209.26 C 996.165 -198.91 994.935 -188.53 993.725 -178.15 C 993.615 -177.22 993.505 -176.28 993.395 -175.32 C 991.865 -162.21 990.455 -149.07 989.305 -135.93 C 988.755 -129.87 988.055 -123.85 987.185 -117.83 C 985.065 -103.09 983.855 -88.302 982.665 -73.462 C 982.245 -68.353 981.825 -63.245 981.405 -58.137 C 981.305 -56.911 981.205 -55.684 981.105 -54.42 C 980.475 -46.869 979.745 -39.338 978.915 -31.807 C 977.965 -22.98 977.355 -14.129 976.725 -5.274 C 975.415 13.16 975.415 13.16 974.575 21.463 C 968.545 81.464 967.375 141.567 967.035 201.823 C 966.965 213.397 966.875 224.972 966.775 236.546 C 966.755 239.657 966.725 242.767 966.705 245.878 C 966.685 247.926 966.675 249.974 966.655 252.023 C 966.605 258.053 966.565 264.084 966.515 270.114 C 966.375 290.418 966.195 310.716 965.725 331.015 C 965.705 331.913 965.675 332.811 965.655 333.736 C 965.635 334.621 965.615 335.507 965.595 336.42 C 965.095 357.802 964.765 379.185 964.625 400.572 C 964.585 406.917 964.525 413.261 964.415 419.605 C 964.315 425.892 964.255 432.177 964.235 438.464 C 964.225 440.825 964.185 443.185 964.135 445.545 C 963.365 457.851 963.365 457.851 967.395 469.001 C 969.935 471.06 972.285 472.46 975.225 473.851 C 976.395 474.714 977.545 475.607 978.655 476.538 C 984.565 481.087 990.525 485.537 996.575 489.894 C 1000.22 492.583 1003.73 495.421 1007.23 498.284 C 1009.14 499.892 1009.14 499.892 1011.23 500.851 C 1011.23 501.511 1011.23 502.171 1011.23 502.851 C 1011.8 502.95 1012.39 503.049 1013 503.152 C 1015.65 503.985 1016.95 505.139 1018.98 507.038 C 1022.88 510.585 1026.96 513.738 1031.22 516.851 C 1038.05 521.881 1044.68 527.12 1051.34 532.365 C 1053.24 533.867 1055.15 535.367 1057.07 536.866 C 1058.01 537.601 1058.01 537.601 1058.95 538.35 C 1060.14 539.282 1061.34 540.214 1062.52 541.147 C 1065.02 543.107 1067.49 545.077 1069.93 547.105 C 1072.18 549.019 1072.18 549.019 1075.22 549.851 C 1076.91 551.495 1078.58 553.165 1080.22 554.851 C 1081.09 555.348 1081.95 555.845 1082.85 556.357 C 1086.58 560.262 1085.97 564.228 1085.96 569.443 C 1085.99 571.061 1085.99 571.061 1086.03 572.712 C 1086.08 576.283 1086.09 579.853 1086.1 583.425 C 1086.12 585.909 1086.13 588.393 1086.15 590.876 C 1086.19 596.088 1086.2 601.298 1086.2 606.51 C 1086.2 613.178 1086.29 619.843 1086.38 626.51 C 1086.45 631.643 1086.46 636.775 1086.46 641.908 C 1086.47 644.366 1086.49 646.823 1086.55 649.28 C 1086.88 669.513 1086.88 669.513 1082.86 674.288 C 1080.07 676.606 1077.45 678.227 1074.22 679.851 C 1072.65 680.972 1071.1 682.115 1069.57 683.292 C 1068.1 684.336 1066.63 685.376 1065.16 686.413 C 1058.68 691.039 1052.38 695.809 1046.22 700.851 C 1035.49 709.341 1024.59 717.624 1013.6 725.788 C 1010.34 728.219 1007.2 730.699 1004.16 733.413 C 1001.23 735.851 1001.23 735.851 998.225 735.851 C 998.225 736.511 998.225 737.171 998.225 737.851 C 996.355 739.331 996.355 739.331 993.785 741.038 C 990.485 743.289 987.245 745.56 984.095 748.038 C 979.905 751.347 975.635 754.537 971.345 757.726 C 965.615 762.001 960.025 766.389 954.555 771.011 C 952.215 772.861 949.785 774.32 947.225 775.851 C 945.355 777.394 943.575 779.009 941.775 780.644 C 940.225 781.851 940.225 781.851 938.225 781.851 C 938.235 782.854 938.245 783.858 938.255 784.892 C 938.335 798.392 937.905 811.861 937.415 825.351 C 937.375 826.542 937.325 827.732 937.285 828.959 C 936.575 848.557 935.675 868.142 934.665 887.726 C 934.595 888.973 934.535 890.22 934.465 891.504 C 934.285 895.055 934.095 898.605 933.905 902.156 C 933.855 903.195 933.795 904.234 933.745 905.305 C 933.405 911.509 932.905 917.675 932.225 923.851 C 931.895 923.851 931.565 923.851 931.225 923.851 C 931.195 922.567 931.195 922.567 931.165 921.257 C 930.925 911.293 930.635 901.332 930.305 891.37 C 930.255 889.729 930.205 888.087 930.155 886.445 C 929.355 860.796 926.695 835.693 923.015 810.304 C 922.235 804.979 921.515 799.649 920.795 794.316 C 920.455 791.855 920.125 789.395 919.795 786.935 C 919.585 785.403 919.375 783.871 919.165 782.339 C 917.825 768.12 917.825 768.12 913.225 754.851 C 911.195 754.2 911.195 754.2 909.225 753.851 C 906.995 736.153 904.895 718.46 903.265 700.696 C 902.695 694.519 902.055 688.363 901.295 682.206 C 899.775 669.725 898.795 657.189 897.725 644.663 C 897.615 643.378 897.505 642.093 897.395 640.769 C 896.035 624.948 894.715 609.128 893.775 593.276 C 893.395 587.032 893.395 587.032 892.705 580.82 C 891.975 574.773 891.875 568.717 891.705 562.632 C 891.445 554.955 890.895 547.32 890.285 539.663 C 889.305 527.305 888.535 514.942 887.845 502.564 C 887.665 499.219 887.475 495.875 887.285 492.531 C 887.155 490.312 887.035 488.093 886.905 485.874 C 886.855 484.92 886.795 483.967 886.745 482.984 C 886.555 479.607 886.385 476.229 886.225 472.851 C 886.185 472.021 886.145 471.191 886.105 470.335 C 885.365 454.934 885.035 439.558 884.945 424.14 C 884.925 421.704 884.905 419.267 884.885 416.831 C 884.845 410.833 884.805 404.835 884.765 398.838 C 884.735 393.831 884.705 388.825 884.665 383.819 C 884.375 342.84 884.165 301.861 883.975 260.882 C 883.965 259.763 883.965 258.644 883.955 257.492 C 883.865 236.864 883.775 216.237 883.675 195.61 C 883.425 139.677 883.175 83.745 882.525 27.814 C 882.335 10.535 882.175 -6.744 882.145 -24.025 C 882.135 -25.919 882.135 -27.813 882.125 -29.707 C 882.085 -39.166 882.195 -48.59 882.675 -58.037 C 883.175 -68.051 883.455 -78.063 883.695 -88.087 C 883.705 -88.909 883.725 -89.732 883.745 -90.58 C 883.865 -95.849 883.985 -101.12 884.105 -106.39 C 884.205 -111.08 884.315 -115.77 884.415 -120.47 C 884.695 -132.35 884.955 -144.25 885.225 -156.15 C 885.515 -169 885.805 -181.84 886.095 -194.71 C 886.205 -199.34 886.305 -204 886.405 -208.65 C 887.185 -243.84 887.185 -243.84 888.015 -259.83 C 888.355 -266.48 888.435 -273.12 888.555 -279.76 C 888.895 -297.42 889.705 -315.02 890.665 -332.64 C 890.725 -333.8 890.785 -334.94 890.845 -336.12 C 891.545 -349.05 892.405 -361.94 893.525 -374.83 C 894.215 -382.86 894.755 -390.87 895.225 -398.89 C 895.785 -408 896.425 -417.06 897.405 -426.12 C 897.975 -431.44 898.455 -436.76 898.875 -442.11 C 898.935 -442.82 898.995 -443.56 899.055 -444.3 C 899.115 -445.04 899.165 -445.77 899.235 -446.54 C 901.335 -472.88 904.075 -499.17 907.835 -525.33 C 908.275 -528.5 908.685 -531.68 909.085 -534.88 C 912.445 -560.85 917.305 -586.16 925.225 -611.14 Z" style="fill: rgb(0, 0, 255);"/>
  <path d="M 780.225 -613.14 C 828.735 -613.14 877.245 -613.14 927.225 -613.14 C 927.225 -612.49 927.225 -611.83 927.225 -611.14 C 926.565 -611.14 925.905 -611.14 925.225 -611.14 C 925.075 -610.32 925.075 -610.32 924.925 -609.46 C 924.005 -604.5 922.825 -599.71 921.365 -594.88 C 918.975 -586.58 917.305 -578.2 915.725 -569.72 C 915.575 -568.91 915.425 -568.13 915.275 -567.3 C 912.475 -552.4 910.415 -537.5 908.645 -522.45 C 908.245 -519.34 907.775 -516.25 907.275 -513.14 C 905.765 -503.56 904.805 -493.92 903.785 -484.27 C 903.675 -483.25 903.575 -482.24 903.455 -481.19 C 901.725 -464.87 900.275 -448.54 899.125 -432.15 C 899.075 -431.38 899.015 -430.62 898.955 -429.82 C 898.815 -427.77 898.675 -425.71 898.535 -423.67 C 898.225 -420.14 898.225 -420.14 897.735 -417.31 C 897.035 -412.94 896.805 -408.57 896.545 -404.17 C 896.485 -403.19 896.425 -402.23 896.355 -401.24 C 896.235 -399.17 896.105 -397.11 895.985 -395.05 C 895.655 -389.67 895.325 -384.3 894.985 -378.92 C 894.885 -377.35 894.885 -377.35 894.785 -375.75 C 894.325 -368.51 893.785 -361.31 893.165 -354.08 C 891.035 -328.9 890.065 -303.63 889.565 -278.38 C 889.425 -271.4 889.255 -264.44 888.895 -257.48 C 888.015 -240.29 887.725 -223.1 887.345 -205.91 C 887.245 -201.22 887.135 -196.53 887.025 -191.84 C 886.755 -179.94 886.495 -168.04 886.225 -156.15 C 885.935 -143.29 885.645 -130.44 885.355 -117.6 C 885.245 -112.95 885.145 -108.3 885.045 -103.66 C 884.925 -98.466 884.815 -93.277 884.695 -88.087 C 884.675 -87.274 884.655 -86.462 884.635 -85.625 C 884.395 -75.565 884.055 -65.52 883.545 -55.47 C 883.075 -45.962 883.095 -36.459 883.135 -26.942 C 883.135 -24.972 883.145 -23.002 883.145 -21.032 C 883.185 -3.808 883.365 13.415 883.565 30.639 C 884.195 85.626 884.435 140.615 884.675 195.605 C 884.735 208.277 884.795 220.948 884.855 233.62 C 884.855 234.755 884.865 235.891 884.865 237.061 C 885.185 307.676 885.185 307.676 885.585 378.291 C 885.595 379.749 885.605 381.207 885.605 382.665 C 885.615 383.376 885.615 384.088 885.625 384.821 C 885.655 389.66 885.675 394.5 885.705 399.339 C 885.945 447.167 887.695 494.8 891.545 542.476 C 892.115 549.807 892.475 557.128 892.725 564.476 C 893.115 575.507 893.925 586.46 894.915 597.451 C 895.435 603.197 895.925 608.944 896.415 614.692 C 896.605 616.872 896.785 619.053 896.975 621.233 C 897.745 630.094 898.485 638.956 899.205 647.82 C 901.645 677.856 901.645 677.856 904.865 707.818 C 905.395 712.239 905.895 716.663 906.395 721.086 C 907.645 732.011 908.935 742.931 910.225 753.851 C 910.825 753.871 911.425 753.892 912.035 753.913 C 914.225 754.851 914.225 754.851 915.845 757.495 C 917.895 762.926 918.335 768.751 918.985 774.479 C 919.315 777.289 919.655 780.096 920.005 782.903 C 920.175 784.304 920.345 785.705 920.515 787.106 C 921.135 792.246 921.865 797.361 922.665 802.476 C 922.905 804.077 923.145 805.679 923.375 807.281 C 923.825 810.279 924.295 813.271 924.795 816.262 C 930.125 848.577 931.025 881.177 932.225 913.851 C 932.555 913.851 932.885 913.851 933.225 913.851 C 933.255 917.33 933.275 920.809 933.285 924.288 C 933.295 925.282 933.305 926.275 933.315 927.298 C 933.315 928.242 933.315 929.187 933.325 930.159 C 933.325 931.034 933.335 931.909 933.335 932.81 C 933.225 934.851 933.225 934.851 932.225 935.851 C 930.175 935.948 928.125 935.973 926.065 935.971 C 925.415 935.972 924.765 935.973 924.095 935.974 C 921.905 935.975 919.715 935.97 917.515 935.964 C 915.945 935.964 914.385 935.964 912.815 935.965 C 908.545 935.965 904.285 935.959 900.015 935.952 C 895.565 935.946 891.105 935.945 886.655 935.944 C 878.215 935.941 869.775 935.933 861.335 935.923 C 851.735 935.912 842.125 935.906 832.525 935.901 C 812.755 935.891 792.985 935.873 773.225 935.851 C 773.465 927.886 773.715 919.922 773.955 911.957 C 774.075 908.256 774.185 904.555 774.295 900.854 C 775.825 850.366 775.825 850.366 777.525 838.562 C 777.655 837.642 777.775 836.721 777.905 835.773 C 778.295 832.923 778.695 830.074 779.095 827.226 C 779.355 825.328 779.615 823.429 779.875 821.531 C 781.245 811.553 782.695 801.59 784.205 791.632 C 784.865 787.299 785.495 782.965 786.065 778.62 C 786.185 777.778 786.295 776.936 786.405 776.068 C 786.625 774.423 786.835 772.777 787.045 771.13 C 787.785 765.628 788.635 759.825 791.225 754.851 C 792.215 754.521 793.205 754.191 794.225 753.851 C 794.885 754.181 795.545 754.511 796.225 754.851 C 796.195 753.608 796.165 752.366 796.135 751.085 C 796.145 745.356 796.855 739.774 797.595 734.101 C 798.615 726.005 799.555 717.915 800.285 709.788 C 801.075 701.113 802.115 692.492 803.225 683.851 C 804.715 672.1 805.605 660.369 806.335 648.546 C 806.805 641.254 807.375 633.982 808.095 626.71 C 808.175 625.91 808.255 625.11 808.345 624.286 C 808.425 623.466 808.505 622.646 808.585 621.801 C 811.365 593.917 812.955 565.977 814.525 538.004 C 814.965 530.225 815.445 522.45 815.955 514.676 C 818.395 477.314 819.545 439.99 819.795 402.553 C 819.835 396.655 819.895 390.758 819.945 384.86 C 820.035 373.432 820.125 362.005 820.205 350.577 C 820.265 341.305 820.335 332.033 820.415 322.76 C 821.015 245.208 821.485 167.655 821.845 90.101 C 821.855 88.984 821.865 87.868 821.865 86.717 C 821.935 71.761 822.005 56.805 822.065 41.849 C 822.075 39.015 822.085 36.182 822.105 33.349 C 822.185 13.078 822.235 -7.193 822.245 -27.465 C 822.245 -28.416 822.245 -29.366 822.245 -30.346 C 822.255 -43.136 822.205 -55.92 821.855 -68.707 C 821.765 -71.919 821.695 -75.131 821.615 -78.344 C 821.445 -84.885 821.225 -91.418 820.885 -97.953 C 820.085 -113.65 819.825 -129.35 819.505 -145.06 C 819.395 -150.47 819.275 -155.87 819.155 -161.26 C 819.115 -163.15 819.075 -165.01 819.035 -166.9 C 819.015 -167.84 818.995 -168.78 818.975 -169.75 C 818.705 -182.25 818.435 -194.78 818.185 -207.28 C 817.375 -246.97 816.395 -286.61 814.215 -326.23 C 814.175 -327 814.125 -327.75 814.085 -328.55 C 813.125 -345.95 811.955 -363.35 810.435 -380.71 C 809.965 -386.24 809.595 -391.76 809.225 -397.3 C 809.055 -399.73 808.895 -402.17 808.725 -404.6 C 808.475 -408.29 808.225 -411.99 807.975 -415.69 C 807.045 -429.46 806.035 -443.21 804.475 -456.94 C 804.045 -460.75 803.655 -464.56 803.265 -468.37 C 802.505 -475.63 801.735 -482.88 800.965 -490.13 C 800.585 -493.8 800.195 -497.44 799.815 -501.1 C 798.105 -517.53 795.925 -533.85 793.225 -550.14 C 793.045 -551.27 792.855 -552.39 792.675 -553.55 C 790.265 -568.23 787.315 -582.63 783.545 -597 C 783.265 -598.1 782.975 -599.2 782.675 -600.33 C 782.425 -601.28 782.165 -602.25 781.905 -603.23 C 781.145 -606.5 780.695 -609.83 780.225 -613.14 Z" fill="#FDFDFD"/>
  <path d="M 2020.22 316.851 C 2060.49 316.851 2100.74 316.851 2142.22 316.851 C 2142.26 332.388 2142.3 347.925 2142.34 363.933 C 2142.37 373.772 2142.4 383.611 2142.43 393.451 C 2142.49 409.07 2142.54 424.689 2142.57 440.309 C 2142.59 451.684 2142.63 463.06 2142.67 474.436 C 2142.7 480.457 2142.72 486.479 2142.72 492.5 C 2142.73 498.173 2142.75 503.845 2142.78 509.518 C 2142.79 511.595 2142.79 513.672 2142.79 515.749 C 2142.78 528.516 2142.8 540.032 2149.66 551.288 C 2150.24 552.256 2150.82 553.225 2151.41 554.222 C 2153.15 556.905 2153.15 556.905 2155.45 559.074 C 2156.03 559.66 2156.62 560.247 2157.22 560.851 C 2157.22 561.511 2157.22 562.171 2157.22 562.851 C 2157.8 563.129 2158.37 563.408 2158.96 563.695 C 2161.93 565.208 2164.76 566.923 2167.62 568.632 C 2174.83 572 2181.78 572.162 2189.6 572.101 C 2190.58 572.109 2191.55 572.116 2192.56 572.124 C 2205.61 572.09 2215.65 569.342 2225.74 560.695 C 2235.65 550.582 2240.36 538.044 2240.39 524.049 C 2240.39 523.163 2240.39 522.277 2240.39 521.364 C 2240.41 518.394 2240.43 515.425 2240.43 512.455 C 2240.43 510.326 2240.45 508.198 2240.45 506.069 C 2240.49 500.288 2240.51 494.508 2240.53 488.727 C 2240.55 482.687 2240.57 476.646 2240.61 470.606 C 2240.66 459.167 2240.7 447.727 2240.74 436.288 C 2240.8 420.831 2240.86 405.373 2240.93 389.916 C 2241.03 365.561 2241.14 341.206 2241.22 316.851 C 2281.49 316.851 2321.74 316.851 2363.22 316.851 C 2363.22 432.021 2363.22 547.191 2363.22 665.851 C 2325.93 665.851 2288.64 665.851 2250.22 665.851 C 2248.91 652.651 2247.59 639.451 2246.22 625.851 C 2242.76 629.811 2242.76 629.811 2239.22 633.851 C 2228.86 645.15 2216.66 652.755 2203.22 659.851 C 2202.15 660.421 2201.08 660.99 2199.98 661.577 C 2182.09 670.466 2161.94 673.28 2142.16 673.226 C 2141.44 673.226 2140.72 673.225 2139.97 673.225 C 2128 673.19 2116.78 672.086 2105.22 668.851 C 2104.52 668.669 2103.82 668.487 2103.09 668.3 C 2075.76 661.199 2053.59 642.986 2039.22 618.851 C 2036.56 613.989 2034.36 608.962 2032.22 603.851 C 2031.78 602.866 2031.33 601.881 2030.87 600.867 C 2026.23 590.052 2024.29 578.379 2022.22 566.851 C 2022.05 565.912 2021.87 564.972 2021.69 564.004 C 2019.77 552.559 2019.96 541.17 2020 529.597 C 2020 527.27 2020 524.943 2020 522.616 C 2020 516.336 2020.01 510.056 2020.02 503.776 C 2020.04 497.199 2020.04 490.622 2020.04 484.045 C 2020.04 473.018 2020.06 461.992 2020.07 450.965 C 2020.09 439.614 2020.11 428.263 2020.12 416.912 C 2020.12 416.204 2020.12 415.495 2020.12 414.765 C 2020.12 408.602 2020.13 402.439 2020.13 396.276 C 2020.15 369.801 2020.19 343.326 2020.22 316.851 Z" style="fill: rgb(255, 0, 0);"/>
  <path d="M 1366.22 316.851 C 1406.48 316.851 1446.74 316.851 1488.22 316.851 C 1488.22 432.021 1488.22 547.191 1488.22 665.851 C 1450.93 665.851 1413.64 665.851 1375.22 665.851 C 1373.9 652.651 1372.59 639.451 1371.22 625.851 C 1367.76 629.811 1367.76 629.811 1364.22 633.851 C 1353.86 645.15 1341.66 652.755 1328.22 659.851 C 1327.15 660.421 1326.08 660.99 1324.98 661.577 C 1307.09 670.466 1286.94 673.28 1267.16 673.226 C 1266.44 673.226 1265.72 673.225 1264.97 673.225 C 1253 673.19 1241.78 672.086 1230.22 668.851 C 1229.52 668.669 1228.82 668.487 1228.09 668.3 C 1201.79 661.467 1179.32 644.073 1165.34 620.799 C 1162.21 615.333 1159.68 609.641 1157.22 603.851 C 1156.78 602.865 1156.33 601.879 1155.86 600.863 C 1151.23 590.046 1149.29 578.378 1147.22 566.851 C 1147.05 565.91 1146.87 564.97 1146.69 564.001 C 1144.78 552.586 1144.96 541.231 1145 529.689 C 1145 527.372 1145 525.055 1145 522.737 C 1145 516.484 1145.01 510.231 1145.02 503.978 C 1145.04 497.429 1145.04 490.88 1145.04 484.331 C 1145.04 473.351 1145.06 462.372 1145.07 451.392 C 1145.09 440.09 1145.11 428.787 1145.12 417.485 C 1145.12 416.779 1145.12 416.074 1145.12 415.347 C 1145.12 409.21 1145.13 403.073 1145.13 396.936 C 1145.15 370.575 1145.19 344.213 1145.22 317.851 C 1185.15 317.851 1225.09 317.851 1266.22 317.851 C 1266.26 340.043 1266.26 340.043 1266.3 362.683 C 1266.33 372.076 1266.36 381.468 1266.38 390.861 C 1266.43 405.757 1266.48 420.654 1266.5 435.55 C 1266.51 446.402 1266.54 457.253 1266.58 468.104 C 1266.6 473.843 1266.62 479.582 1266.62 485.321 C 1266.62 490.738 1266.63 496.154 1266.67 501.57 C 1266.67 503.544 1266.68 505.518 1266.67 507.492 C 1266.63 524.728 1267.42 542.611 1278.22 556.851 C 1278.96 557.574 1279.69 558.297 1280.44 559.042 C 1282.22 560.851 1282.22 560.851 1282.22 562.851 C 1282.8 563.129 1283.37 563.408 1283.96 563.695 C 1286.92 565.208 1289.76 566.923 1292.62 568.632 C 1299.83 572 1306.78 572.162 1314.6 572.101 C 1315.58 572.109 1316.55 572.116 1317.56 572.124 C 1330.61 572.09 1340.65 569.342 1350.74 560.695 C 1360.65 550.582 1365.37 538.044 1365.38 524.049 C 1365.39 523.163 1365.39 522.277 1365.4 521.364 C 1365.41 518.394 1365.42 515.425 1365.43 512.455 C 1365.44 510.326 1365.45 508.198 1365.46 506.069 C 1365.49 500.288 1365.51 494.508 1365.53 488.727 C 1365.55 482.687 1365.58 476.646 1365.61 470.606 C 1365.65 459.167 1365.7 447.727 1365.74 436.288 C 1365.8 420.831 1365.87 405.373 1365.93 389.916 C 1366.04 365.561 1366.13 341.206 1366.22 316.851 Z" style="fill: rgb(255, 0, 0);"/>
  <path d="M 384.675 310.59 C 387.525 310.601 390.365 310.59 393.205 310.577 C 406.735 310.566 419.975 311.197 433.035 315.038 C 434.155 315.359 434.155 315.359 435.285 315.685 C 478.655 328.544 513.315 355.115 535.225 394.851 C 544.655 412.559 551.005 431.045 554.225 450.851 C 554.495 452.49 554.495 452.49 554.775 454.163 C 556.385 465.276 556.495 476.275 556.435 487.491 C 556.415 490.637 556.405 493.783 556.415 496.929 C 556.405 498.939 556.395 500.95 556.395 502.96 C 556.395 503.895 556.395 504.831 556.395 505.794 C 556.385 506.663 556.375 507.532 556.375 508.428 C 556.365 509.188 556.365 509.948 556.355 510.731 C 556.225 512.851 556.225 512.851 555.225 516.851 C 480.645 516.851 406.065 516.851 329.225 516.851 C 339.295 536.982 351.735 552.015 373.435 559.98 C 388.105 564.557 401.625 566.03 416.975 566.038 C 418.245 566.05 419.515 566.063 420.815 566.075 C 443.955 566.111 462.765 559.708 481.725 546.487 C 484.225 544.851 484.225 544.851 487.225 543.851 C 487.585 544.367 487.945 544.884 488.315 545.417 C 496.105 556.556 503.915 567.681 511.765 578.778 C 513.235 580.868 514.705 582.961 516.185 585.054 C 522.015 593.343 527.895 601.591 533.865 609.788 C 534.865 611.173 535.865 612.562 536.865 613.954 C 537.745 615.175 538.625 616.389 539.525 617.595 C 540.665 619.183 540.665 619.183 542.225 621.851 C 541.135 625.137 540.645 625.55 537.935 627.452 C 537.255 627.938 536.565 628.424 535.855 628.924 C 535.115 629.436 534.365 629.948 533.605 630.476 C 532.445 631.275 532.445 631.275 531.275 632.09 C 514.715 643.476 497.175 653.062 478.225 659.851 C 476.885 660.331 476.885 660.331 475.515 660.82 C 428.475 677.38 370.085 678.75 323.225 659.851 C 322.455 659.548 321.685 659.244 320.895 658.932 C 277.145 641.467 243.645 609.401 224.875 566.202 C 223.975 564.088 223.075 561.97 222.275 559.851 C 221.875 558.924 221.475 557.997 220.975 557.042 C 217.175 547.43 215.175 536.98 213.275 526.851 C 213.075 525.901 212.875 524.951 212.675 523.972 C 210.875 513.881 210.875 503.818 210.875 493.601 C 210.875 492.672 210.875 491.743 210.875 490.787 C 210.975 442.379 227.075 396.589 260.855 361.299 C 262.155 359.922 263.435 358.516 264.705 357.108 C 286.675 333.637 320.405 317.88 351.965 313.215 C 353.535 312.961 355.105 312.664 356.665 312.334 C 365.975 310.472 375.225 310.548 384.675 310.59 Z" style="fill: rgb(255, 0, 0);"/>
  <path d="M 1784.13 423.003 C 1800.13 436.559 1806.64 456.625 1809.22 476.851 C 1810.36 492.548 1810.19 508.553 1806.22 523.851 C 1805.97 524.892 1805.71 525.934 1805.45 527.007 C 1801.02 542.462 1790.92 556.479 1777.41 565.226 C 1761.37 574.096 1742.03 576.945 1724.17 572.417 C 1707.93 567.619 1695.3 557.097 1686.65 542.526 C 1684.46 538.406 1682.73 534.264 1681.22 529.851 C 1680.86 528.83 1680.5 527.809 1680.13 526.757 C 1676.11 514.683 1676.06 502.803 1676.1 490.163 C 1676.1 488.909 1676.09 487.656 1676.09 486.364 C 1676.1 476.682 1676.62 467.825 1679.41 458.538 C 1679.63 457.804 1679.85 457.07 1680.08 456.313 C 1685.42 439.209 1695.66 425.048 1711.45 416.206 C 1733.61 405.376 1764.37 408.37 1784.13 423.003 Z" fill="#FEFEFE"/>
  <path d="M 1884.97 -135.59 C 1889.29 -135 1891.61 -133.51 1894.22 -130.15 C 1898.12 -122.99 1900.16 -115.21 1902.13 -107.35 C 1902.89 -104.38 1903.72 -101.44 1904.6 -98.508 C 1914.31 -66.047 1919.44 -32.943 1921.22 0.851 C 1921.27 1.604 1921.31 2.356 1921.36 3.131 C 1922.28 19.334 1922.34 35.501 1922.29 51.726 C 1922.28 54.276 1922.28 56.825 1922.27 59.375 C 1922.26 65.534 1922.25 71.693 1922.22 77.851 C 1895.14 83.705 1895.14 83.705 1883.54 83.476 C 1882.55 83.496 1881.56 83.515 1880.54 83.535 C 1869.5 83.466 1858.88 80.496 1848.22 77.851 C 1847.42 13.198 1850.04 -49.804 1871.36 -111.56 C 1872.22 -114.13 1872.96 -116.72 1873.66 -119.34 C 1875.37 -125.13 1878.34 -134.53 1884.97 -135.59 Z" style="fill: rgb(0, 0, 255);"/>
  <path d="M -97.725 478.851 C -75.625 478.771 -75.625 478.771 -66.125 478.753 C -59.625 478.741 -53.225 478.727 -46.725 478.7 C -41.525 478.678 -36.225 478.666 -31.025 478.661 C -29.025 478.657 -27.125 478.65 -25.125 478.639 C -5.725 478.537 13.075 478.804 28.175 492.663 C 36.475 501.364 37.875 510.158 37.875 521.803 C 37.475 533.038 33.875 542.518 26.275 550.851 C 15.775 559.346 4.275 562.184 -8.925 562.078 C -9.825 562.078 -10.825 562.079 -11.825 562.079 C -15.025 562.077 -18.125 562.062 -21.325 562.046 C -23.525 562.042 -25.725 562.04 -27.925 562.038 C -33.725 562.03 -39.525 562.01 -45.325 561.988 C -52.225 561.964 -59.225 561.955 -66.125 561.943 C -76.725 561.924 -87.225 561.886 -97.725 561.851 C -97.725 534.461 -97.725 507.071 -97.725 478.851 Z" fill="#FEFEFE"/>
  <path d="M 1888.22 289.851 C 1893.08 292.232 1895.63 295.143 1898.22 299.851 C 1899.04 303.11 1899.35 306.158 1899.37 309.509 C 1899.38 310.42 1899.39 311.332 1899.39 312.272 C 1899.4 313.264 1899.4 314.257 1899.4 315.28 C 1899.41 316.342 1899.42 317.403 1899.42 318.497 C 1899.45 322.06 1899.46 325.624 1899.48 329.187 C 1899.49 331.74 1899.51 334.292 1899.52 336.845 C 1899.56 343.785 1899.6 350.726 1899.63 357.666 C 1899.65 362.003 1899.67 366.34 1899.69 370.678 C 1899.75 382.695 1899.8 394.713 1899.85 406.73 C 1899.86 407.499 1899.86 408.268 1899.86 409.06 C 1899.87 409.831 1899.87 410.601 1899.87 411.396 C 1899.88 412.957 1899.89 414.519 1899.89 416.08 C 1899.9 416.855 1899.9 417.629 1899.9 418.427 C 1899.95 430.967 1900.02 443.507 1900.09 456.047 C 1900.17 468.934 1900.23 481.821 1900.28 494.708 C 1900.31 501.938 1900.34 509.168 1900.39 516.399 C 1900.43 523.204 1900.46 530.009 1900.48 536.814 C 1900.48 539.307 1900.5 541.8 1900.52 544.293 C 1900.55 547.706 1900.55 551.119 1900.56 554.533 C 1900.57 555.999 1900.57 555.999 1900.59 557.494 C 1900.56 567.596 1898.98 577.08 1892.22 584.851 C 1888.17 587.554 1884.98 587.495 1880.22 586.851 C 1874.79 584.285 1872.72 581.112 1870.22 575.851 C 1869.41 572.557 1869.1 569.493 1869.09 566.107 C 1869.09 565.176 1869.08 564.245 1869.08 563.285 C 1869.08 562.271 1869.08 561.257 1869.08 560.212 C 1869.07 559.128 1869.07 558.044 1869.07 556.927 C 1869.06 553.287 1869.05 549.648 1869.05 546.008 C 1869.04 543.401 1869.04 540.795 1869.03 538.188 C 1869.01 530.362 1869 522.536 1868.99 514.71 C 1868.98 511.022 1868.98 507.334 1868.97 503.647 C 1868.96 491.384 1868.94 479.122 1868.94 466.86 C 1868.93 463.68 1868.93 460.501 1868.93 457.321 C 1868.93 456.53 1868.93 455.74 1868.93 454.926 C 1868.92 442.122 1868.89 429.318 1868.86 416.514 C 1868.83 403.362 1868.81 390.21 1868.81 377.057 C 1868.81 369.675 1868.8 362.294 1868.77 354.912 C 1868.75 347.968 1868.74 341.024 1868.75 334.08 C 1868.76 331.533 1868.75 328.986 1868.73 326.438 C 1868.72 322.958 1868.72 319.478 1868.74 315.998 C 1868.73 314.993 1868.71 313.987 1868.7 312.951 C 1868.78 304.901 1870.82 298.587 1875.91 292.288 C 1879.62 288.921 1883.47 288.86 1888.22 289.851 Z" fill="#FCFCFC"/>
  <path d="M -97.725 311.851 C -86.025 311.789 -74.325 311.727 -62.225 311.663 C -56.725 311.622 -56.725 311.622 -51.125 311.581 C -46.525 311.567 -46.525 311.567 -44.325 311.565 C -42.925 311.56 -41.425 311.55 -39.925 311.534 C -23.625 311.372 -7.325 312.513 5.175 324.288 C 11.975 331.693 14.575 339.737 14.575 349.663 C 14.575 350.464 14.575 351.264 14.475 352.088 C 14.375 357.8 13.775 362.686 11.275 367.851 C 10.975 368.458 10.675 369.065 10.375 369.691 C 5.175 379.9 -3.325 384.261 -13.725 387.851 C -18.425 388.813 -22.925 388.988 -27.625 388.964 C -28.725 388.965 -28.725 388.965 -29.925 388.965 C -32.425 388.964 -34.925 388.956 -37.425 388.949 C -39.125 388.947 -40.925 388.945 -42.625 388.944 C -47.225 388.94 -51.825 388.931 -56.325 388.92 C -61.825 388.908 -67.325 388.903 -72.825 388.897 C -81.125 388.887 -89.425 388.868 -97.725 388.851 C -97.725 363.441 -97.725 338.031 -97.725 311.851 Z" fill="#FDFDFD"/>
  <path d="M 386.945 409.611 C 388.955 409.601 390.965 409.57 392.975 409.539 C 400.605 409.508 407.115 410.027 414.225 412.851 C 415.295 413.277 416.375 413.702 417.475 414.14 C 428.665 419.574 436.695 426.63 442.225 437.851 C 442.565 438.53 442.905 439.21 443.255 439.91 C 445.765 445.667 445.225 448.971 445.225 455.851 C 405.955 455.851 366.685 455.851 326.225 455.851 C 328.565 441.833 336.675 429.44 347.885 420.8 C 360.465 412.347 372.005 409.654 386.945 409.611 Z" fill="#FDFDFD"/>
  <path d="M 738.225 -383.14 C 738.555 -383.14 738.885 -383.14 739.225 -383.14 C 738.135 -359.18 736.575 -335.25 734.725 -311.32 C 733.695 -297.99 732.805 -284.63 732.015 -271.27 C 731.075 -255.5 730.045 -239.75 728.995 -224 C 728.715 -219.78 728.435 -215.56 728.155 -211.35 C 727.945 -208.04 727.725 -204.75 727.505 -201.44 C 727.395 -199.88 727.295 -198.32 727.195 -196.78 C 727.055 -194.62 726.915 -192.47 726.765 -190.31 C 726.685 -189.09 726.605 -187.88 726.525 -186.62 C 725.975 -180.28 725.555 -175.88 721.665 -170.72 C 720.705 -169.41 720.705 -169.41 719.725 -168.09 C 719.225 -167.46 718.735 -166.81 718.225 -166.15 C 715.575 -168.79 715.725 -170.47 715.275 -174.16 C 715.045 -176.06 715.045 -176.06 714.805 -178 C 714.645 -179.4 714.475 -180.78 714.315 -182.18 C 714.145 -183.6 713.965 -185.03 713.795 -186.47 C 713.335 -190.24 712.885 -194 712.435 -197.78 C 712.075 -200.82 711.705 -203.88 711.335 -206.93 C 710.885 -210.59 710.445 -214.25 710.005 -217.93 C 709.915 -218.62 709.835 -219.31 709.755 -220 C 705.335 -256.77 704.545 -297.88 719.185 -332.67 C 721.065 -337.14 722.715 -341.73 724.415 -346.27 C 725.195 -348.38 725.975 -350.46 726.765 -352.56 C 727.165 -353.63 727.565 -354.71 727.975 -355.81 C 730.075 -361.44 732.185 -367.05 734.285 -372.64 C 735.045 -374.69 735.815 -376.71 736.575 -378.75 C 737.125 -380.21 737.675 -381.69 738.225 -383.14 Z" fill="#F9F9F9"/>
  <path d="M 967.225 -380.14 C 969.935 -378.8 970.015 -377.56 971.045 -374.75 C 971.385 -373.81 971.735 -372.87 972.095 -371.89 C 972.645 -370.37 972.645 -370.37 973.215 -368.8 C 973.605 -367.74 973.995 -366.68 974.395 -365.6 C 975.215 -363.35 976.035 -361.11 976.845 -358.86 C 978.085 -355.45 979.325 -352.06 980.575 -348.67 C 990.655 -321.12 990.655 -321.12 993.345 -307.77 C 993.515 -306.96 993.685 -306.17 993.855 -305.33 C 995.325 -297.98 996.435 -290.62 997.225 -283.14 C 997.335 -282.11 997.445 -281.06 997.565 -279.99 C 999.425 -259.07 997.985 -238.43 995.415 -217.65 C 995.145 -215.43 994.885 -213.19 994.625 -210.97 C 993.975 -205.47 993.305 -200 992.635 -194.5 C 991.925 -188.68 991.225 -182.84 990.525 -177 C 990.275 -174.9 990.025 -172.78 989.765 -170.69 C 989.585 -169.18 989.405 -167.66 989.225 -166.15 C 988.565 -166.15 987.905 -166.15 987.225 -166.15 C 985.845 -168.12 984.515 -170.13 983.225 -172.15 C 982.455 -172.96 982.455 -172.96 981.655 -173.78 C 979.435 -177.47 979.475 -181.21 979.195 -185.44 C 979.125 -186.4 979.055 -187.34 978.975 -188.32 C 978.735 -191.51 978.515 -194.71 978.285 -197.9 C 978.115 -200.19 977.955 -202.47 977.775 -204.76 C 976.295 -225.03 975.035 -245.31 973.805 -265.6 C 972.875 -280.87 971.905 -296.13 970.865 -311.4 C 970.745 -313.13 970.625 -314.85 970.515 -316.56 C 970.005 -324.07 969.485 -331.6 968.965 -339.12 C 968.755 -342.23 968.535 -345.32 968.325 -348.44 C 968.225 -349.87 968.135 -351.3 968.025 -352.73 C 967.385 -361.89 967.105 -370.96 967.225 -380.14 Z" fill="#F9F9F9"/>
  <path d="M 1860.22 129.851 C 1884.48 130.346 1884.48 130.346 1909.22 130.851 C 1909.22 150.321 1909.22 169.791 1909.22 189.851 C 1893.06 189.851 1876.88 189.851 1860.22 189.851 C 1860.22 170.051 1860.22 150.251 1860.22 129.851 Z" fill="#FCFCFC"/>
  <path d="M 968.225 -387.14 C 969.865 -384.69 970.715 -383.05 971.635 -380.32 C 971.895 -379.56 972.165 -378.79 972.435 -378 C 972.715 -377.17 972.995 -376.32 973.285 -375.46 C 975.585 -368.77 977.955 -362.13 980.475 -355.54 C 992.315 -324.46 1001.46 -294.8 1001.41 -261.33 C 1001.41 -260.56 1001.41 -259.79 1001.41 -258.99 C 1001.39 -246.59 1000.85 -234.44 999.225 -222.15 C 999.115 -221.31 999.015 -220.47 998.895 -219.59 C 998.435 -215.97 997.965 -212.32 997.475 -208.69 C 996.225 -199.38 995.125 -190.04 994.035 -180.72 C 993.945 -179.94 993.855 -179.16 993.765 -178.37 C 993.245 -173.97 992.735 -169.56 992.225 -165.15 C 991.235 -165.47 990.245 -165.81 989.225 -166.15 C 989.035 -173.66 989.785 -180.88 990.725 -188.32 C 990.875 -189.57 991.025 -190.82 991.185 -192.12 C 991.585 -195.41 991.995 -198.72 992.415 -202.01 C 992.995 -206.65 993.555 -211.28 994.125 -215.91 C 994.435 -218.38 994.735 -220.84 995.045 -223.29 C 997.775 -245.34 998.195 -267.08 995.225 -289.14 C 995.115 -289.94 995.015 -290.75 994.895 -291.57 C 994.565 -294 994.215 -296.42 993.845 -298.83 C 993.745 -299.52 993.645 -300.2 993.545 -300.92 C 993.155 -303.35 992.695 -305.75 992.225 -308.14 C 992.015 -309.26 991.805 -310.38 991.595 -311.52 C 988.665 -325.94 983.165 -339.5 977.975 -353.21 C 977.025 -355.74 976.085 -358.25 975.135 -360.79 C 972.845 -366.92 970.535 -373.04 968.225 -379.14 C 967.565 -379.14 966.905 -379.14 966.225 -379.14 C 966.225 -380.8 966.225 -382.44 966.225 -384.14 C 966.885 -384.14 967.545 -384.14 968.225 -384.14 C 968.225 -385.13 968.225 -386.13 968.225 -387.14 Z" fill="#1E1E1F"/>
  <path d="M 736.225 -385.14 C 737.215 -385.14 738.205 -385.14 739.225 -385.14 C 735.025 -372.31 730.425 -359.62 725.665 -346.96 C 725.275 -345.93 724.885 -344.88 724.485 -343.81 C 721.315 -335.36 721.315 -335.36 719.715 -331.31 C 705.845 -295.17 706.315 -254.93 711.225 -217.15 C 712.025 -210.91 712.825 -204.69 713.625 -198.44 C 713.975 -195.75 714.325 -193.04 714.685 -190.35 C 714.905 -188.69 715.115 -187.01 715.335 -185.34 C 715.435 -184.57 715.545 -183.81 715.655 -183.01 C 716.105 -179.49 716.425 -176.53 715.225 -173.15 C 715.015 -171.74 714.825 -170.31 714.665 -168.9 C 714.515 -167.66 714.375 -166.43 714.225 -165.15 C 713.895 -165.15 713.565 -165.15 713.225 -165.15 C 713.145 -165.9 713.055 -166.63 712.975 -167.4 C 712.175 -174.46 711.385 -181.51 710.595 -188.57 C 710.185 -192.19 709.775 -195.82 709.365 -199.46 C 708.975 -202.96 708.575 -206.47 708.185 -209.97 C 708.025 -211.34 707.875 -212.72 707.725 -214.09 C 706.895 -221.44 706.025 -228.75 705.015 -236.07 C 703.995 -244.16 703.875 -252.19 703.915 -260.33 C 703.915 -261.1 703.915 -261.86 703.915 -262.64 C 703.955 -275 704.655 -287.01 707.225 -299.14 C 707.375 -299.87 707.525 -300.56 707.675 -301.31 C 711.565 -319.08 717.915 -336.13 724.225 -353.14 C 725.115 -355.56 726.005 -357.98 726.895 -360.38 C 728.635 -365.1 730.375 -369.81 732.125 -374.52 C 732.485 -375.5 732.835 -376.45 733.205 -377.45 C 734.185 -380.04 735.195 -382.6 736.225 -385.14 Z" fill="#232323"/>
  <path d="M 1854.22 616.851 C 1874.36 616.851 1894.48 616.851 1915.22 616.851 C 1915.22 618.851 1915.22 618.851 1914 620.148 C 1905.84 626.593 1894.78 631.979 1884.18 631.312 C 1861.92 627.837 1861.92 627.837 1855.22 620.726 C 1854.22 618.851 1854.22 618.851 1854.22 616.851 Z" fill="#F0F0F0"/>
  <path d="M 707.225 -244.15 C 707.555 -244.15 707.885 -244.15 708.225 -244.15 C 708.285 -243.54 708.355 -242.94 708.425 -242.31 C 708.745 -239.25 709.075 -236.21 709.415 -233.15 C 709.535 -231.99 709.665 -230.81 709.795 -229.62 C 710.655 -221.93 711.585 -214.25 712.575 -206.59 C 712.685 -205.69 712.805 -204.79 712.925 -203.87 C 713.505 -199.37 714.085 -194.85 714.685 -190.35 C 714.905 -188.69 715.115 -187.01 715.335 -185.34 C 715.435 -184.57 715.545 -183.81 715.655 -183.01 C 716.105 -179.47 716.425 -176.53 715.225 -173.15 C 715.015 -171.74 714.825 -170.31 714.665 -168.9 C 714.445 -167.04 714.445 -167.04 714.225 -165.15 C 713.895 -165.15 713.565 -165.15 713.225 -165.15 C 712.325 -173.06 711.435 -180.97 710.535 -188.88 C 710.125 -192.56 709.705 -196.24 709.295 -199.91 C 708.885 -203.46 708.485 -207.01 708.085 -210.56 C 707.855 -212.56 707.635 -214.56 707.405 -216.56 C 706.635 -223.43 705.885 -230.28 705.225 -237.15 C 705.555 -237.15 705.885 -237.15 706.225 -237.15 C 706.555 -239.46 706.885 -241.76 707.225 -244.15 Z" fill="#1D1D1E"/>
  <path d="M 968.225 -387.14 C 969.865 -384.69 970.715 -383.05 971.635 -380.32 C 971.895 -379.56 972.165 -378.79 972.435 -378 C 972.855 -376.75 972.855 -376.75 973.285 -375.46 C 975.975 -367.63 978.795 -359.88 981.725 -352.14 C 984.655 -344.38 987.555 -336.6 990.345 -328.77 C 990.655 -327.94 990.965 -327.08 991.285 -326.21 C 991.985 -324.21 992.615 -322.19 993.225 -320.14 C 992.225 -318.14 992.225 -318.14 990.225 -317.14 C 990.045 -317.8 989.865 -318.44 989.675 -319.11 C 986.045 -331.44 981.435 -343.42 976.975 -355.46 C 976.125 -357.76 975.275 -360.06 974.425 -362.37 C 972.365 -367.96 970.295 -373.56 968.225 -379.14 C 967.565 -379.14 966.905 -379.14 966.225 -379.14 C 966.225 -380.8 966.225 -382.44 966.225 -384.14 C 966.885 -384.14 967.545 -384.14 968.225 -384.14 C 968.225 -385.13 968.225 -386.13 968.225 -387.14 Z" fill="#1C1C1C"/>
  <path d="M 706.225 -285.14 C 706.885 -285.14 707.545 -285.14 708.225 -285.14 C 708.295 -273.98 708.095 -262.82 707.725 -251.65 C 707.675 -250.13 707.625 -248.62 707.585 -247.09 C 707.465 -243.44 707.345 -239.79 707.225 -236.15 C 706.565 -236.47 705.905 -236.81 705.225 -237.15 C 704.115 -241.78 704.065 -246.41 704.055 -251.15 C 704.055 -251.9 704.045 -252.65 704.045 -253.43 C 704.045 -255 704.035 -256.58 704.035 -258.18 C 704.035 -260.57 704.015 -262.99 704.005 -265.38 C 703.995 -266.94 703.995 -268.48 703.995 -270.02 C 703.985 -270.74 703.985 -271.44 703.975 -272.18 C 703.995 -276.89 704.765 -280.7 706.225 -285.14 Z" fill="#141414"/>
  <path d="M 771.225 884.851 C 775.175 888.429 775.175 888.429 775.655 892.23 C 775.635 893.625 775.595 895.02 775.535 896.413 C 775.525 897.171 775.505 897.929 775.495 898.71 C 775.425 901.425 775.325 904.137 775.225 906.851 C 775.145 909.248 775.065 911.645 774.985 914.042 C 774.755 920.646 774.505 927.249 774.225 933.851 C 773.895 933.851 773.565 933.851 773.225 933.851 C 772.455 929.68 772.055 925.651 771.905 921.413 C 771.865 920.188 771.825 918.962 771.785 917.699 C 771.745 916.429 771.705 915.159 771.665 913.851 C 771.615 912.612 771.575 911.373 771.535 910.097 C 771.255 901.677 771.175 893.275 771.225 884.851 Z" fill="#393939"/>
  <path d="M 712.225 -319.14 C 712.885 -319.14 713.545 -319.14 714.225 -319.14 C 713.825 -312.88 713.275 -306.88 711.765 -300.8 C 710.505 -294.65 709.945 -288.38 709.225 -282.14 C 708.735 -283.63 708.735 -283.63 708.225 -285.14 C 707.565 -285.14 706.905 -285.14 706.225 -285.14 C 705.895 -284.49 705.565 -283.82 705.225 -283.14 C 705.885 -289.8 706.895 -296.29 708.165 -302.83 C 708.335 -303.75 708.505 -304.65 708.675 -305.6 C 709.565 -310.25 710.575 -314.69 712.225 -319.14 Z" fill="#1C1D1D"/>
  <path d="M 997.225 -244.15 C 997.555 -244.15 997.885 -244.15 998.225 -244.15 C 998.225 -241.5 998.225 -238.87 998.225 -236.15 C 998.885 -236.15 999.545 -236.15 1000.23 -236.15 C 999.605 -223.72 997.915 -211.47 996.225 -199.15 C 995.895 -199.15 995.565 -199.15 995.225 -199.15 C 995.085 -199.9 994.935 -200.63 994.785 -201.4 C 994.465 -202.97 994.115 -204.54 993.675 -206.09 C 992.925 -209.53 993.585 -212.96 994.005 -216.41 C 994.095 -217.21 994.185 -218 994.275 -218.81 C 994.565 -221.34 994.865 -223.88 995.165 -226.4 C 995.365 -228.12 995.555 -229.84 995.755 -231.54 C 996.235 -235.75 996.725 -239.94 997.225 -244.15 Z" fill="#202021"/>
  <path d="M 999.225 -272.14 C 1001.23 -270.14 1001.23 -270.14 1001.47 -267.56 C 1001.47 -266.48 1001.47 -265.4 1001.46 -264.3 C 1001.46 -263.12 1001.46 -261.94 1001.46 -260.71 C 1001.43 -259.48 1001.42 -258.24 1001.41 -256.96 C 1001.41 -255.75 1001.41 -254.53 1001.41 -253.26 C 1001.38 -247.47 1001.28 -241.85 1000.23 -236.15 C 999.565 -236.15 998.905 -236.15 998.225 -236.15 C 998.205 -241.12 998.185 -246.09 998.175 -251.04 C 998.165 -252.74 998.155 -254.43 998.145 -256.13 C 998.135 -258.55 998.135 -260.96 998.125 -263.39 C 998.125 -264.15 998.115 -264.92 998.115 -265.7 C 998.115 -267.51 998.165 -269.33 998.225 -271.14 C 998.555 -271.48 998.885 -271.81 999.225 -272.14 Z" fill="#0D0D0D"/>
  <path d="M 981.225 -351.14 C 983.825 -348.56 984.435 -346.14 985.645 -342.69 C 985.865 -342.05 986.085 -341.4 986.315 -340.75 C 986.775 -339.4 987.245 -338.06 987.705 -336.71 C 988.415 -334.65 989.135 -332.6 989.855 -330.54 C 990.305 -329.24 990.755 -327.93 991.205 -326.62 C 991.615 -325.43 992.025 -324.24 992.455 -323 C 993.225 -320.14 993.225 -320.14 992.225 -318.14 C 991.235 -317.65 991.235 -317.65 990.225 -317.14 C 990.005 -317.9 989.785 -318.65 989.565 -319.44 C 988.055 -324.5 986.515 -329.49 984.585 -334.39 C 984.315 -335.11 984.035 -335.81 983.745 -336.55 C 983.205 -337.93 982.645 -339.31 982.065 -340.68 C 980.525 -344.56 979.905 -347.13 981.225 -351.14 Z" fill="#363636"/>
  <path d="M 996.225 -293.14 C 997.215 -292.81 998.205 -292.49 999.225 -292.14 C 1001.52 -277.56 1001.52 -277.56 1001.23 -270.14 C 1000.57 -270.48 999.905 -270.81 999.225 -271.14 C 998.565 -270.49 997.905 -269.82 997.225 -269.14 C 996.575 -277.17 996.055 -285.11 996.225 -293.14 Z" fill="#1B1A1C"/>
  <path d="M 738.225 -383.14 C 738.555 -383.14 738.885 -383.14 739.225 -383.14 C 738.965 -378.04 738.695 -372.92 738.425 -367.8 C 738.335 -366.06 738.245 -364.32 738.155 -362.6 C 737.575 -351.44 736.945 -340.3 736.225 -329.14 C 735.895 -329.14 735.565 -329.14 735.225 -329.14 C 735.055 -343.18 735.585 -357.14 736.225 -371.14 C 735.895 -370.15 735.565 -369.17 735.225 -368.14 C 734.565 -368.14 733.905 -368.14 733.225 -368.14 C 736.295 -378.7 736.295 -378.7 738.225 -383.14 Z" fill="#C9C9C9"/>
  <path d="M 720.225 -342.14 C 721.335 -340.46 721.335 -340.46 722.225 -338.14 C 721.655 -335.74 721.655 -335.74 720.535 -333.08 C 718.325 -327.52 716.705 -321.94 715.225 -316.14 C 713.225 -319.14 713.225 -319.14 713.785 -322.96 C 715.425 -329.51 717.875 -335.82 720.225 -342.14 Z" fill="#323232"/>
  <path d="M 707.225 -244.15 C 707.555 -244.15 707.885 -244.15 708.225 -244.15 C 709.295 -235.13 709.325 -226.22 709.225 -217.15 C 708.565 -217.15 707.905 -217.15 707.225 -217.15 C 706.885 -219.54 706.555 -221.94 706.225 -224.34 C 706.135 -225 706.035 -225.69 705.935 -226.38 C 705.445 -230 705.115 -233.5 705.225 -237.15 C 705.555 -237.15 705.885 -237.15 706.225 -237.15 C 706.555 -239.46 706.885 -241.76 707.225 -244.15 Z" fill="#151416"/>
  <path d="M 968.225 -387.14 C 970.305 -384.02 971.555 -381.07 972.915 -377.58 C 973.375 -376.44 973.825 -375.27 974.295 -374.08 C 975.225 -371.14 975.225 -371.14 974.225 -369.14 C 973.565 -368.81 972.905 -368.49 972.225 -368.14 C 970.905 -371.77 969.585 -375.4 968.225 -379.14 C 967.565 -379.14 966.905 -379.14 966.225 -379.14 C 966.225 -380.8 966.225 -382.44 966.225 -384.14 C 966.885 -384.14 967.545 -384.14 968.225 -384.14 C 968.225 -385.13 968.225 -386.13 968.225 -387.14 Z" fill="#363737"/>
  <path d="M 728.225 -361.14 C 728.885 -361.14 729.545 -361.14 730.225 -361.14 C 728.325 -354.38 726.375 -347.46 723.225 -341.14 C 722.565 -340.81 721.905 -340.49 721.225 -340.14 C 721.675 -346.56 723.605 -356.54 728.225 -361.14 Z" fill="#191919"/>
  <path d="M 997.225 -244.15 C 997.555 -244.15 997.885 -244.15 998.225 -244.15 C 998.225 -241.5 998.225 -238.87 998.225 -236.15 C 998.885 -236.15 999.545 -236.15 1000.23 -236.15 C 999.895 -231.53 999.565 -226.91 999.225 -222.15 C 998.895 -223.47 998.565 -224.78 998.225 -226.15 C 997.565 -226.15 996.905 -226.15 996.225 -226.15 C 996.715 -235.06 996.715 -235.06 997.225 -244.15 Z" fill="#323234"/>
  <path d="M 990.225 -184.15 C 990.555 -184.15 990.885 -184.15 991.225 -184.15 C 991.365 -183.22 991.515 -182.29 991.665 -181.34 C 992.145 -178.15 992.145 -178.15 993.225 -175.15 C 993.145 -173.41 992.985 -171.69 992.785 -169.97 C 992.685 -169.06 992.585 -168.16 992.475 -167.24 C 992.395 -166.54 992.315 -165.85 992.225 -165.15 C 991.235 -165.47 990.245 -165.81 989.225 -166.15 C 989.125 -172.26 989.455 -178.09 990.225 -184.15 Z" fill="#252526"/>
  <path d="M 981.225 -351.14 C 984.845 -347.52 986.105 -342.12 986.415 -337.08 C 986.355 -336.44 986.285 -335.81 986.225 -335.14 C 983.435 -337.54 982.495 -339.65 981.475 -343.14 C 981.215 -344.01 980.945 -344.88 980.675 -345.77 C 980.225 -348.14 980.225 -348.14 981.225 -351.14 Z" fill="#2E2E2E"/>
  <path d="M 680.225 511.851 C 680.885 512.181 681.545 512.511 682.225 512.851 C 678.925 516.151 675.625 519.451 672.225 522.851 C 671.235 522.521 670.245 522.191 669.225 521.851 C 672.715 518.255 676.335 515.016 680.225 511.851 Z" fill="#232425"/>
  <path d="M 996.225 -304.14 C 996.555 -304.14 996.885 -304.14 997.225 -304.14 C 997.885 -300.19 998.545 -296.23 999.225 -292.14 C 998.235 -292.48 997.245 -292.81 996.225 -293.14 C 995.895 -291.82 995.565 -290.5 995.225 -289.14 C 995.005 -290.89 994.795 -292.64 994.595 -294.39 C 994.485 -295.38 994.365 -296.35 994.245 -297.36 C 994.225 -300.29 994.695 -301.69 996.225 -304.14 Z" fill="#282829"/>
  <path d="M 714.225 -186.15 C 714.555 -186.15 714.885 -186.15 715.225 -186.15 C 715.555 -181.85 715.885 -177.56 716.225 -173.15 C 715.895 -173.15 715.565 -173.15 715.225 -173.15 C 714.895 -170.5 714.565 -167.87 714.225 -165.15 C 713.895 -165.15 713.565 -165.15 713.225 -165.15 C 712.895 -169.76 712.565 -174.38 712.225 -179.15 C 712.555 -179.15 712.885 -179.15 713.225 -179.15 C 713.555 -181.46 713.885 -183.76 714.225 -186.15 Z" fill="#3A3A3B"/>
  <path d="M 994.225 -217.15 C 996.675 -213.47 996.455 -210.71 996.345 -206.47 C 996.345 -205.75 996.335 -205.06 996.325 -204.34 C 996.295 -202.6 996.265 -200.88 996.225 -199.15 C 995.895 -199.15 995.565 -199.15 995.225 -199.15 C 995.085 -199.9 994.935 -200.63 994.785 -201.4 C 994.295 -204.03 994.295 -204.03 993.665 -206.03 C 993.155 -208.49 993.335 -210.41 993.665 -212.9 C 993.765 -213.69 993.865 -214.5 993.975 -215.32 C 994.055 -215.93 994.135 -216.53 994.225 -217.15 Z" fill="#2D2D2E"/>
  <path d="M 779.225 -611.14 C 781.415 -607.87 782.225 -604.95 783.225 -601.14 C 782.565 -601.14 781.905 -601.14 781.225 -601.14 C 780.565 -601.8 779.905 -602.47 779.225 -603.14 C 778.235 -602.65 778.235 -602.65 777.225 -602.14 C 777.715 -605.27 778.225 -608.14 779.225 -611.14 Z" fill="#2E2E2E"/>
  <path d="M 708.225 -293.14 C 708.555 -293.14 708.885 -293.14 709.225 -293.14 C 709.225 -289.51 709.225 -285.88 709.225 -282.14 C 708.895 -283.13 708.565 -284.13 708.225 -285.14 C 707.565 -285.14 706.905 -285.14 706.225 -285.14 C 705.895 -284.49 705.565 -283.82 705.225 -283.14 C 704.865 -287.4 705.755 -289.69 708.225 -293.14 Z" fill="#252526"/>
  <path d="M 1080.22 673.851 C 1080.88 674.181 1081.55 674.511 1082.22 674.851 C 1078.8 678.487 1075.42 681.212 1071.22 683.851 C 1070.57 683.521 1069.9 683.191 1069.22 682.851 C 1072.86 679.881 1076.48 676.911 1080.22 673.851 Z" fill="#CCCDCE"/>
  <path d="M 730.225 -369.14 C 731.215 -369.14 732.205 -369.14 733.225 -369.14 C 732.565 -366.5 731.905 -363.87 731.225 -361.14 C 729.905 -360.81 728.585 -360.49 727.225 -360.14 C 728.215 -363.12 729.205 -366.08 730.225 -369.14 Z" fill="#303030"/>
  <path d="M 714.225 -174.15 C 716.225 -173.15 716.225 -173.15 716.855 -171.31 C 717.025 -170.57 717.185 -169.84 717.355 -169.09 C 717.515 -168.35 717.685 -167.63 717.855 -166.87 C 717.975 -166.29 718.105 -165.74 718.225 -165.15 C 717.235 -165.15 716.245 -165.15 715.225 -165.15 C 714.895 -163.82 714.565 -162.5 714.225 -161.15 C 714.225 -165.44 714.225 -169.72 714.225 -174.15 Z" fill="#171718"/>
  <path d="M 707.225 -244.15 C 707.555 -244.15 707.885 -244.15 708.225 -244.15 C 708.555 -239.19 708.885 -234.25 709.225 -229.15 C 708.895 -230.13 708.565 -231.13 708.225 -232.15 C 707.235 -232.15 706.245 -232.15 705.225 -232.15 C 705.225 -233.79 705.225 -235.44 705.225 -237.15 C 705.555 -237.15 705.885 -237.15 706.225 -237.15 C 706.555 -239.46 706.885 -241.76 707.225 -244.15 Z" fill="#333334"/>
  <path d="M 993.225 -310.14 C 993.885 -310.14 994.545 -310.14 995.225 -310.14 C 996.425 -307.75 996.325 -306.19 996.285 -303.52 C 996.275 -302.7 996.275 -301.88 996.265 -301.05 C 996.245 -300.43 996.235 -299.8 996.225 -299.14 C 995.565 -299.48 994.905 -299.81 994.225 -300.14 C 993.815 -302.44 993.815 -302.44 993.595 -305.21 C 993.525 -306.13 993.455 -307.06 993.375 -308 C 993.325 -308.7 993.275 -309.42 993.225 -310.14 Z" fill="#0F1011"/>
  <path d="M 725.225 -183.15 C 725.555 -183.15 725.885 -183.15 726.225 -183.15 C 727.455 -178.13 727.455 -178.13 727.225 -175.15 C 725.575 -172.44 723.545 -170.31 721.225 -168.15 C 720.565 -168.47 719.905 -168.81 719.225 -169.15 C 720.025 -170.16 720.835 -171.18 721.665 -172.22 C 724.335 -175.91 724.945 -178.65 725.225 -183.15 Z" fill="#2E3030"/>
  <path d="M 691.225 502.851 C 691.885 503.181 692.545 503.511 693.225 503.851 C 689.885 508.364 687.895 510.533 682.225 511.851 C 685.225 508.851 688.225 505.851 691.225 502.851 Z" fill="#353637"/>
  <path d="M 706.225 -285.14 C 706.885 -285.14 707.545 -285.14 708.225 -285.14 C 708.595 -279.62 708.595 -279.62 706.725 -277.27 C 705.985 -276.71 705.985 -276.71 705.225 -276.14 C 705.105 -282.89 705.105 -282.89 706.225 -285.14 Z" fill="#080809"/>
  <path d="M 720.225 -342.14 C 721.355 -340.58 721.355 -340.58 722.225 -338.14 C 721.355 -334.39 721.355 -334.39 720.225 -331.14 C 718.225 -334.14 718.225 -334.14 718.535 -337.21 C 719.225 -340.14 719.225 -340.14 720.225 -342.14 Z" fill="#3A3A3A"/>
  <path d="M 723.225 -351.14 C 723.885 -350.15 724.545 -349.17 725.225 -348.14 C 724.475 -344.52 724.475 -344.52 723.225 -341.14 C 722.235 -340.65 722.235 -340.65 721.225 -340.14 C 722.225 -347.57 722.225 -347.57 723.225 -351.14 Z" fill="#222222"/>
  <path d="M 712.225 -202.15 C 712.555 -202.15 712.885 -202.15 713.225 -202.15 C 713.225 -199.84 713.225 -197.53 713.225 -195.15 C 712.565 -195.15 711.905 -195.15 711.225 -195.15 C 711.225 -193.5 711.225 -191.84 711.225 -190.15 C 710.895 -190.15 710.565 -190.15 710.225 -190.15 C 710.175 -191.59 710.135 -193.03 710.105 -194.47 C 710.075 -195.26 710.055 -196.06 710.025 -196.88 C 710.225 -199.15 710.225 -199.15 712.225 -202.15 Z" fill="#39393A"/>
</svg>